<svg width="256" height="218" version="1.1" xmlns="http://www.w3.org/2000/svg" desc="Created with imagetracer.js version 1.2.6" ><path fill="rgb(67,160,254)" stroke="rgb(67,160,254)" stroke-width="1" opacity="0.5686274509803921" d="M 72.5 14 L 79.5 15 L 80.5 14 L 103.5 14 Q 105.2 16.8 111.5 15 L 112.5 14 L 179.5 14 L 185 15.5 L 71.5 16 L 72.5 14 Z " /><path fill="rgb(67,160,254)" stroke="rgb(67,160,254)" stroke-width="1" opacity="0.5686274509803921" d="M 58.5 15 L 64 15.5 L 58.5 16 L 58.5 15 Z " /><path fill="rgb(67,160,254)" stroke="rgb(67,160,254)" stroke-width="1" opacity="0.5686274509803921" d="M 190.5 15 L 196 15.5 L 190.5 16 L 190.5 15 Z " /><path fill="rgb(67,160,254)" stroke="rgb(67,160,254)" stroke-width="1" opacity="0.5686274509803921" d="M 54.5 17 L 200.5 17 L 205.5 19 L 207 18.5 Q 204.8 19.7 207.5 21 L 213 25.5 L 216.5 33 L 217.5 31 L 218 32.5 L 217 34.5 L 218.5 38 L 219.5 36 L 221 41.5 L 220 43.5 L 222 43.5 L 221 46.5 L 222.5 49 L 224 48.5 L 223 51.5 L 225 51.5 L 224 54.5 L 226 54.5 L 225 57.5 L 227 57.5 L 226 59.5 L 227 62.5 L 226 62.5 L 215 30.5 L 208.5 22 L 200.5 18 L 55.5 18 Q 46.8 20.3 42.5 27 L 42 24.5 L 43.5 23 Q 45.3 25.7 47 21.5 L 46.5 20 L 48.5 20 L 50 19.5 L 49.5 18 L 51.5 19 L 54.5 17 Z M 220 38 L 219 41 L 220 41 L 220 38 Z " /><path fill="rgb(67,160,254)" stroke="rgb(67,160,254)" stroke-width="1" opacity="0.5686274509803921" d="M 40.5 26 L 42 28.5 L 32.5 53 L 32 51.5 L 34 45.5 L 33 45.5 L 32.5 47 L 32 45.5 L 35 44.5 L 34 41.5 L 36 41.5 L 37 37 L 35 36.5 L 37 35.5 L 37.5 37 L 38 34.5 L 37.5 33 L 39 33.5 L 38 31.5 L 40 31.5 L 39 28.5 L 40.5 26 Z " /><path fill="rgb(67,160,254)" stroke="rgb(67,160,254)" stroke-width="1" opacity="0.5686274509803921" d="M 30.5 52 L 32 55.5 L 28.5 64 L 28 62.5 L 29 59.5 L 28.5 58 L 30 58.5 L 29 55.5 L 31 55.5 L 30.5 52 Z " /><path fill="rgb(67,160,254)" stroke="rgb(67,160,254)" stroke-width="1" opacity="0.5686274509803921" d="M 227.5 64 L 230 70.5 L 229 70.5 L 227.5 64 Z " /><path fill="rgb(67,160,254)" stroke="rgb(67,160,254)" stroke-width="1" opacity="0.5686274509803921" d="M 27.5 65 L 28 66.5 L 24.5 75 L 24 73.5 L 27.5 65 Z " /><path fill="rgb(67,160,254)" stroke="rgb(67,160,254)" stroke-width="1" opacity="0.5686274509803921" d="M 232.5 78 L 235 84.5 L 234 84.5 L 232.5 78 Z " /><path fill="rgb(67,160,254)" stroke="rgb(67,160,254)" stroke-width="1" opacity="0.5686274509803921" d="M 22.5 79 L 23 80.5 L 21.5 83 L 21 81.5 L 22.5 79 Z " /><path fill="rgb(67,160,254)" stroke="rgb(67,160,254)" stroke-width="1" opacity="0.5686274509803921" d="M 16.5 96 L 17 105.5 L 16 105.5 L 16.5 96 Z " /><path fill="rgb(67,160,254)" stroke="rgb(67,160,254)" stroke-width="1" opacity="0.5686274509803921" d="M 239.5 99 L 240 102.5 L 239 102.5 L 239.5 99 Z " /><path fill="rgb(67,160,254)" stroke="rgb(67,160,254)" stroke-width="1" opacity="0.5686274509803921" d="M 20.5 113 L 27.5 121 L 20.5 113 Z " /><path fill="rgb(67,160,254)" stroke="rgb(67,160,254)" stroke-width="1" opacity="0.5686274509803921" d="M 235.5 113 L 227.5 122 L 235.5 113 Z " /><path fill="rgb(67,160,254)" stroke="rgb(67,160,254)" stroke-width="1" opacity="0.5686274509803921" d="M 30.5 122 L 34.5 127 L 30.5 122 Z " /><path fill="rgb(67,160,254)" stroke="rgb(67,160,254)" stroke-width="1" opacity="0.5686274509803921" d="M 223.5 124 L 218.5 130 L 223.5 124 Z " /><path fill="rgb(67,160,254)" stroke="rgb(67,160,254)" stroke-width="1" opacity="0.5686274509803921" d="M 38.5 129 L 42.5 134 L 38.5 129 Z " /><path fill="rgb(67,160,254)" stroke="rgb(67,160,254)" stroke-width="1" opacity="0.5686274509803921" d="M 214.5 132 L 209.5 138 L 214.5 132 Z " /><path fill="rgb(67,160,254)" stroke="rgb(67,160,254)" stroke-width="1" opacity="0.5686274509803921" d="M 45.5 135 L 49.5 140 L 45.5 135 Z " /><path fill="rgb(67,160,254)" stroke="rgb(67,160,254)" stroke-width="1" opacity="0.5686274509803921" d="M 205.5 140 L 201.5 145 L 205.5 140 Z " /><path fill="rgb(67,160,254)" stroke="rgb(67,160,254)" stroke-width="1" opacity="0.5686274509803921" d="M 53.5 142 L 57.5 147 L 53.5 142 Z " /><path fill="rgb(67,160,254)" stroke="rgb(67,160,254)" stroke-width="1" opacity="0.5686274509803921" d="M 196.5 148 L 192.5 153 L 196.5 148 Z " /><path fill="rgb(67,160,254)" stroke="rgb(67,160,254)" stroke-width="1" opacity="0.5686274509803921" d="M 61.5 149 L 63.5 152 L 61.5 149 Z " /><path fill="rgb(67,160,254)" stroke="rgb(67,160,254)" stroke-width="1" opacity="0.5686274509803921" d="M 68.5 155 L 71.5 159 L 68.5 155 Z " /><path fill="rgb(67,160,254)" stroke="rgb(67,160,254)" stroke-width="1" opacity="0.5686274509803921" d="M 187.5 156 L 184.5 160 L 187.5 156 Z " /><path fill="rgb(67,160,254)" stroke="rgb(67,160,254)" stroke-width="1" opacity="0.5686274509803921" d="M 76.5 162 L 78.5 165 L 76.5 162 Z " /><path fill="rgb(67,160,254)" stroke="rgb(67,160,254)" stroke-width="1" opacity="0.5686274509803921" d="M 179.5 163 L 175.5 168 L 179.5 163 Z " /><path fill="rgb(67,160,254)" stroke="rgb(67,160,254)" stroke-width="1" opacity="0.5686274509803921" d="M 83.5 168 L 86.5 172 L 83.5 168 Z " /><path fill="rgb(67,160,254)" stroke="rgb(67,160,254)" stroke-width="1" opacity="0.5686274509803921" d="M 170.5 171 L 166.5 176 L 170.5 171 Z " /><path fill="rgb(67,160,254)" stroke="rgb(67,160,254)" stroke-width="1" opacity="0.5686274509803921" d="M 91.5 175 L 93.5 178 L 91.5 175 Z " /><path fill="rgb(67,160,254)" stroke="rgb(67,160,254)" stroke-width="1" opacity="0.5686274509803921" d="M 161.5 179 L 158.5 183 L 161.5 179 Z " /><path fill="rgb(67,160,254)" stroke="rgb(67,160,254)" stroke-width="1" opacity="0.5686274509803921" d="M 98.5 181 L 101.5 185 L 98.5 181 Z " /><path fill="rgb(67,160,254)" stroke="rgb(67,160,254)" stroke-width="1" opacity="0.5686274509803921" d="M 152.5 187 L 149.5 191 L 152.5 187 Z " /><path fill="rgb(67,160,254)" stroke="rgb(67,160,254)" stroke-width="1" opacity="0.5686274509803921" d="M 106.5 188 L 108.5 191 L 106.5 188 Z " /><path fill="rgb(67,160,254)" stroke="rgb(67,160,254)" stroke-width="1" opacity="0.5686274509803921" d="M 113.5 194 L 115.5 197 L 113.5 194 Z " /><path fill="rgb(67,160,254)" stroke="rgb(67,160,254)" stroke-width="1" opacity="0.5686274509803921" d="M 143.5 195 L 141.5 198 L 143.5 195 Z " /><path fill="rgb(67,160,254)" stroke="rgb(67,160,254)" stroke-width="1" opacity="0.5686274509803921" d="M 127.5 201 L 131 201.5 L 127.5 202 L 127.5 201 Z " /><path fill="rgb(0,0,0)" stroke="rgb(0,0,0)" stroke-width="1" opacity="0" d="M 0 0 L 47 0.5 L 45 1 L 45 3 L 39 3 L 37 7 L 33 7 L 33 9 L 31 9 L 31 11 L 27 13 L 27 17 Q 24 15.8 25 19.5 Q 22 20.8 23 25 L 21 25.5 L 21 32.5 L 20 32.5 L 19.5 31 L 19 37 Q 15.3 35.6 17 41.5 Q 19.2 42.8 16.5 44 Q 13.8 43.4 15 49.5 L 12.5 54 L 11 53.5 L 11 57.5 L 9 59.5 L 9 63.5 L 7 67.5 Q 9.3 68.8 6.5 70 Q 3.9 69.3 5 72 L 7 72.5 L 5 73 Q 5.8 76.1 3 75.5 L 3 82 Q 0.3 80.9 1 83.5 L 0 83.5 L 0 0 Z " /><path fill="rgb(0,0,0)" stroke="rgb(0,0,0)" stroke-width="1" opacity="0" d="M 51.5 0 L 55 0.5 L 51.5 1 L 51.5 0 Z " /><path fill="rgb(0,0,0)" stroke="rgb(0,0,0)" stroke-width="1" opacity="0" d="M 201.5 0 L 205 0.5 L 201.5 1 L 201.5 0 Z " /><path fill="rgb(0,0,0)" stroke="rgb(0,0,0)" stroke-width="1" opacity="0" d="M 209.5 0 L 256 0 L 256 87.5 L 255 87.5 L 253 83.5 L 253 78 Q 249.5 79.1 251 71.5 L 248 70.5 L 249 67.5 L 246 64.5 L 247 63.5 L 247 59 L 245 59 Q 246.3 54.9 243 56 L 243 49.5 Q 240 50.5 241 45.5 Q 237.8 44 239 39 Q 235.3 40.4 237 34.5 L 235 34.5 L 234.5 28 L 233 28.5 L 233 24 L 231 24 L 231 20 L 229.5 20 Q 226.8 18.8 229 17.5 Q 230 13.8 227 15 L 227 11 Q 224 12 225 9 L 222.5 9 L 219 7 Q 220.3 3.3 214.5 5 L 214.5 3 L 211 3 Q 212.1 0.3 209.5 1 L 209.5 0 Z " /><path fill="rgb(0,0,0)" stroke="rgb(0,0,0)" stroke-width="1" opacity="0" d="M 0 85 Q 2.7 83.9 2 86.5 L 0 87.5 L 0 85 Z " /><path fill="rgb(0,0,0)" stroke="rgb(0,0,0)" stroke-width="1" opacity="0" d="M 255.5 89 L 256 91.5 L 255 91.5 L 255.5 89 Z " /><path fill="rgb(0,0,0)" stroke="rgb(0,0,0)" stroke-width="1" opacity="0" d="M 255.5 110 L 256 113.5 L 255 113.5 L 255.5 110 Z " /><path fill="rgb(0,0,0)" stroke="rgb(0,0,0)" stroke-width="1" opacity="0" d="M 0.5 112 Q 3.5 113.5 0.5 115 L 0.5 112 Z " /><path fill="rgb(0,0,0)" stroke="rgb(0,0,0)" stroke-width="1" opacity="0" d="M 0.5 116 L 1 121 L 3 121 L 3 123 Q 5.7 121.9 5 124.5 L 5.5 127 Q 8.1 126.3 7 129 L 9 129 L 9 131 L 11 131 L 11 133 L 13 133 L 13 135 L 15 135 L 15 137 L 17 137 L 17 139 L 19 139 L 19 141 L 21.5 141 L 25 143 L 25 145 L 27 145 L 27 147 L 29 147 L 29 149 L 31 149 L 31 151 L 33 151 L 33 153 L 35 153 Q 33.9 155.7 36.5 155 L 39.5 154 L 43 155.5 Q 40.3 157.2 44.5 159 L 46.5 158 L 51.5 165 L 54.5 167 Q 56.3 170.1 58 168.5 L 57 169.5 L 60.5 173 L 62.5 174 Q 63.7 171.8 65 174.5 Q 62.8 175.8 65.5 177 L 67.5 176 Q 70.3 177.3 68 178.5 L 72.5 183 Q 73.8 180.8 75 183.5 Q 72.8 184.8 75.5 186 L 77.5 187 Q 78.8 184.8 80 187.5 Q 77.3 189.3 81.5 191 L 83.5 190 Q 86.3 191.3 84 192.5 L 87.5 196 L 89 195.5 L 88 196.5 L 91.5 200 L 93.5 201 L 95 200.5 Q 92.8 201.8 95.5 203 L 97 202.5 L 96.5 204 L 98.5 203 L 98 204.5 L 102.5 209 L 104.5 208 L 105.5 211 Q 109.8 215.2 117.5 216 L 119.5 215 L 119.5 216 L 118 216.5 L 139.5 217 L 143 215.5 L 142.5 214 L 145.5 215 L 160 206 L 160 204 L 162 204 Q 160.9 201.3 163.5 202 L 168 197.5 L 167.5 196 L 169.5 197 Q 172.3 195.8 170 194.5 L 173.5 191 L 175.5 191 L 177 190.5 L 175 189.5 L 177 189 L 177.5 187 L 178.5 189 L 204 165.5 L 203.5 164 L 205.5 165 L 205 163.5 L 210.5 158 L 212.5 159 Q 217 157.5 217.5 152 L 218 154 Q 221.8 155 223 152.5 L 223 151 L 225 151 L 225 149 L 227 149 L 227 147 L 229 147 Q 227.9 144.3 230.5 145 L 236.5 139 L 239 139 L 239 137 L 241 137 L 241 135 L 243 135 L 243 133 L 245 133 L 245 131 L 247 131 L 247 129 L 251 127 Q 249.7 121.7 253 122.5 L 253 119.5 L 252 117.5 L 256 116 L 256 218 L 144.5 218 L 141.5 217 L 140.5 218 L 116.5 218 L 114.5 217 L 113.5 218 L 0 218 L 0.5 116 Z M 164 203 Q 162 206 165 205 L 164 203 Z " /><path fill="rgb(67,149,253)" stroke="rgb(67,149,253)" stroke-width="1" opacity="0.996078431372549" d="M 56.5 18 L 199.5 18 L 211 24.5 L 217 36.5 L 235 86.5 L 239 101.5 L 236 111.5 L 230.5 118 L 233 114.5 L 232.5 113 L 235 111.5 Q 235.8 109.3 233.5 110 L 231.5 112 L 192.5 112 L 187.5 110 Q 186.1 113.6 180.5 113 L 178.5 113 Q 175.9 112.3 177 115 L 174.5 115 L 171.5 117 L 170 116.5 L 169 118.5 L 169.5 120 L 167.5 119 L 161.5 123 L 159 122.5 L 165.5 118 L 167 118.5 L 168.5 116 L 173.5 113 L 175 113.5 L 176.5 111 L 204.5 94 L 212 87.5 Q 214.3 84.3 213 77.5 L 202 46.5 L 195.5 38 L 191.5 36 L 63.5 36 L 56 41.5 L 43 77 L 150 77.5 L 97.5 110 L 96 109.5 L 94.5 112 L 89.5 115 L 87.5 114 L 86.5 117 L 84.5 118 L 83 117.5 L 81.5 120 L 79.5 121 L 77 119.5 L 79 119 L 79.5 117 L 81.5 117 L 85 114.5 L 84.5 112 L 81.5 111 L 80.5 112 L 68.5 113 L 67.5 112 L 40.5 112 L 36.5 113 L 35.5 112 L 22 112 L 26 117.5 L 21 113.5 Q 15.5 108.5 17 96.5 L 40 32.5 Q 42.3 25.8 47.5 22 L 56.5 18 Z M 90 110 L 86 112 L 87 114 L 91 111 L 90 110 Z M 182 110 L 181 112 L 184 111 L 182 110 Z " /><path fill="rgb(67,149,253)" stroke="rgb(67,149,253)" stroke-width="1" opacity="0.996078431372549" d="M 29.5 120 L 32.5 124 L 29.5 120 Z " /><path fill="rgb(67,149,253)" stroke="rgb(67,149,253)" stroke-width="1" opacity="0.996078431372549" d="M 226.5 120 L 221.5 126 L 226.5 120 Z " /><path fill="rgb(67,149,253)" stroke="rgb(67,149,253)" stroke-width="1" opacity="0.996078431372549" d="M 73.5 121 L 76.5 122 L 78 121.5 L 71.5 126 L 72.5 124 L 75 122.5 L 73.5 121 Z " /><path fill="rgb(67,149,253)" stroke="rgb(67,149,253)" stroke-width="1" opacity="0.996078431372549" d="M 157.5 123 L 160 124.5 L 157.5 126 L 155.5 125 L 154.5 127 L 166 127.5 L 153.5 128 L 151 127.5 L 157.5 123 Z " /><path fill="rgb(67,149,253)" stroke="rgb(67,149,253)" stroke-width="1" opacity="0.996078431372549" d="M 34.5 124 L 38.5 129 L 34.5 124 Z " /><path fill="rgb(67,149,253)" stroke="rgb(67,149,253)" stroke-width="1" opacity="0.996078431372549" d="M 68.5 125 L 70 126.5 Q 66.9 128.3 68.5 130 L 67 127 L 69 126.5 L 68.5 125 Z " /><path fill="rgb(67,149,253)" stroke="rgb(67,149,253)" stroke-width="1" opacity="0.996078431372549" d="M 168.5 127 L 187.5 127 L 188 128.5 L 182 133.5 L 186.5 128 L 168.5 128 L 168.5 127 Z " /><path fill="rgb(67,149,253)" stroke="rgb(67,149,253)" stroke-width="1" opacity="0.996078431372549" d="M 216.5 129 L 214.5 132 L 216.5 129 Z " /><path fill="rgb(67,149,253)" stroke="rgb(67,149,253)" stroke-width="1" opacity="0.996078431372549" d="M 44.5 133 L 45.5 135 L 44.5 133 Z " /><path fill="rgb(67,149,253)" stroke="rgb(67,149,253)" stroke-width="1" opacity="0.996078431372549" d="M 73.5 133 L 76.5 137 L 73 135.5 L 73.5 133 Z " /><path fill="rgb(67,149,253)" stroke="rgb(67,149,253)" stroke-width="1" opacity="0.996078431372549" d="M 179.5 135 L 174.5 141 L 179.5 135 Z " /><path fill="rgb(67,149,253)" stroke="rgb(67,149,253)" stroke-width="1" opacity="0.996078431372549" d="M 81.5 140 L 83.5 143 L 81.5 140 Z " /><path fill="rgb(67,149,253)" stroke="rgb(67,149,253)" stroke-width="1" opacity="0.996078431372549" d="M 170.5 143 L 166.5 148 L 170.5 143 Z " /><path fill="rgb(67,149,253)" stroke="rgb(67,149,253)" stroke-width="1" opacity="0.996078431372549" d="M 89.5 147 L 91.5 150 L 89.5 147 Z " /><path fill="rgb(67,149,253)" stroke="rgb(67,149,253)" stroke-width="1" opacity="0.996078431372549" d="M 160.5 152 L 157.5 156 L 160.5 152 Z " /><path fill="rgb(67,149,253)" stroke="rgb(67,149,253)" stroke-width="1" opacity="0.996078431372549" d="M 97.5 154 L 99.5 157 L 97.5 154 Z " /><path fill="rgb(67,149,253)" stroke="rgb(67,149,253)" stroke-width="1" opacity="0.996078431372549" d="M 104.5 160 L 106.5 163 L 104.5 160 Z " /><path fill="rgb(67,149,253)" stroke="rgb(67,149,253)" stroke-width="1" opacity="0.996078431372549" d="M 151.5 160 L 149.5 163 L 151.5 160 Z " /><path fill="rgb(67,149,253)" stroke="rgb(67,149,253)" stroke-width="1" opacity="0.996078431372549" d="M 112.5 167 L 114.5 170 L 112.5 167 Z " /><path fill="rgb(67,149,253)" stroke="rgb(67,149,253)" stroke-width="1" opacity="0.996078431372549" d="M 142.5 168 L 140.5 171 L 142.5 168 Z " /><path fill="rgb(67,149,253)" stroke="rgb(67,149,253)" stroke-width="1" opacity="0.996078431372549" d="M 120.5 174 L 121.5 176 L 120.5 174 Z " /><path fill="rgb(67,149,253)" stroke="rgb(67,149,253)" stroke-width="1" opacity="0.996078431372549" d="M 126.5 177 L 130 177.5 L 126.5 178 L 126.5 177 Z " /><path fill="rgb(245,252,254)" stroke="rgb(245,252,254)" stroke-width="1" opacity="1" d="M 67.5 36 L 188.5 36 Q 196.6 37.4 200 43.5 L 207 64 Q 203.3 65.3 205 59.5 Q 202 58.3 203 54 L 201 53.5 L 201 51.5 L 201 48.5 L 197 41 L 188.5 37 L 67.5 37 L 67.5 36 Z " /><path fill="rgb(245,252,254)" stroke="rgb(245,252,254)" stroke-width="1" opacity="1" d="M 63.5 37 L 66 37.5 L 59 41.5 L 57 44.5 Q 54 46.8 55 52 Q 51.7 50.7 53 55.5 L 46 73.5 L 47.5 75 L 151.5 75 L 152.5 76 L 209 76 L 209 70.5 Q 206.3 69.8 207 65.5 L 208 65.5 L 211 77 L 152.5 77 L 151.5 76 L 44 76 L 54 47.5 L 59.5 39 L 63.5 37 Z " /><path fill="rgb(245,252,254)" stroke="rgb(245,252,254)" stroke-width="1" opacity="1" d="M 69.5 128 L 142.5 128 L 143.5 129 L 145.5 129 L 148 129.5 L 142 134.5 L 142 143.5 Q 139.3 142.9 140 146 L 142 146.5 L 142 148.5 L 141 150.5 L 141 163.5 L 140 164.5 L 142 165.5 L 139 168.5 L 140 169.5 L 134.5 175 L 126.5 177 L 113.5 168 L 74.5 134 L 69.5 128 Z M 73 129 L 76 133 Q 78 132 77 135 L 84 140 Q 86 139 85 142 L 88 144 Q 87 147 91 145 L 91 147 L 102 156 Q 104 155 103 158 L 117 168 L 118 171 L 124 175 L 130 175 Q 132 174 131 170 L 131 168 L 131 140 L 133 139 L 135 131 L 134 129 L 73 129 Z " /><path fill="rgb(64,145,253)" stroke="rgb(64,145,253)" stroke-width="1" opacity="0.9372549019607843" d="M 238.5 97 L 239 99.5 L 238 99.5 L 238.5 97 Z " /><path fill="rgb(64,145,253)" stroke="rgb(64,145,253)" stroke-width="1" opacity="0.9372549019607843" d="M 238.5 102 L 239 105.5 L 238 105.5 L 238.5 102 Z " /><path fill="rgb(64,145,253)" stroke="rgb(64,145,253)" stroke-width="1" opacity="0.9372549019607843" d="M 19.5 111 L 20.5 113 L 19.5 111 Z " /><path fill="rgb(64,145,253)" stroke="rgb(64,145,253)" stroke-width="1" opacity="0.9372549019607843" d="M 26.5 118 L 29.5 122 L 26.5 118 Z " /><path fill="rgb(64,145,253)" stroke="rgb(64,145,253)" stroke-width="1" opacity="0.9372549019607843" d="M 228.5 119 L 224.5 124 L 228.5 119 Z " /><path fill="rgb(64,145,253)" stroke="rgb(64,145,253)" stroke-width="1" opacity="0.9372549019607843" d="M 34.5 125 L 36.5 128 L 34.5 125 Z " /><path fill="rgb(64,145,253)" stroke="rgb(64,145,253)" stroke-width="1" opacity="0.9372549019607843" d="M 218.5 128 L 216.5 131 L 218.5 128 Z " /><path fill="rgb(64,145,253)" stroke="rgb(64,145,253)" stroke-width="1" opacity="0.9372549019607843" d="M 42.5 132 L 43.5 134 L 42.5 132 Z " /><path fill="rgb(202,224,254)" stroke="rgb(202,224,254)" stroke-width="1" opacity="1" d="M 196.5 39 L 198.5 42 L 196.5 39 Z " /><path fill="rgb(202,224,254)" stroke="rgb(202,224,254)" stroke-width="1" opacity="1" d="M 148.5 79 L 151 79.5 L 150 81.5 L 209.5 82 L 213 79.5 Q 213.3 89.3 206.5 92 L 188.5 103 L 186.5 103 L 121.5 103 L 118.5 104 L 113 101.5 L 143.5 82 L 145 82.5 L 146.5 80 L 148.5 79 Z " /><path fill="rgb(202,224,254)" stroke="rgb(202,224,254)" stroke-width="1" opacity="1" d="M 68.5 128 L 69.5 130 L 68.5 128 Z " /><path fill="rgb(202,224,254)" stroke="rgb(202,224,254)" stroke-width="1" opacity="1" d="M 150.5 128 L 170 129.5 L 168 130 L 169 139.5 L 167 143.5 L 167 145.5 L 158.5 154 L 152.5 158 L 153 156.5 L 153.5 153 L 155 153.5 L 154 151.5 L 154 136.5 L 155 131.5 L 154.5 130 L 156 129.5 L 150.5 129 L 150.5 128 Z " /><path fill="rgb(202,224,254)" stroke="rgb(202,224,254)" stroke-width="1" opacity="1" d="M 76.5 135 L 77.5 137 L 76.5 135 Z " /><path fill="rgb(202,224,254)" stroke="rgb(202,224,254)" stroke-width="1" opacity="1" d="M 84.5 142 L 85.5 144 L 84.5 142 Z " /><path fill="rgb(202,224,254)" stroke="rgb(202,224,254)" stroke-width="1" opacity="1" d="M 150.5 160 L 147.5 164 L 150.5 160 Z " /><path fill="rgb(202,224,254)" stroke="rgb(202,224,254)" stroke-width="1" opacity="1" d="M 107.5 162 L 108.5 164 L 107.5 162 Z " /><path fill="rgb(202,224,254)" stroke="rgb(202,224,254)" stroke-width="1" opacity="1" d="M 139.5 170 L 138.5 172 L 139.5 170 Z " /><path fill="rgb(177,207,254)" stroke="rgb(177,207,254)" stroke-width="1" opacity="1" d="M 59.5 38 L 56.5 42 L 59.5 38 Z " /><path fill="rgb(177,207,254)" stroke="rgb(177,207,254)" stroke-width="1" opacity="1" d="M 43.5 75 L 44.5 76 L 151 76 L 149.5 79 L 149.5 77 L 43.5 77 L 43.5 75 Z " /><path fill="rgb(177,207,254)" stroke="rgb(177,207,254)" stroke-width="1" opacity="1" d="M 145.5 80 L 144.5 82 L 145.5 80 Z " /><path fill="rgb(177,207,254)" stroke="rgb(177,207,254)" stroke-width="1" opacity="1" d="M 142.5 82 L 141.5 84 L 142.5 82 Z " /><path fill="rgb(177,207,254)" stroke="rgb(177,207,254)" stroke-width="1" opacity="1" d="M 137.5 85 L 136.5 87 L 137.5 85 Z " /><path fill="rgb(177,207,254)" stroke="rgb(177,207,254)" stroke-width="1" opacity="1" d="M 211.5 87 L 207.5 92 L 211.5 87 Z " /><path fill="rgb(177,207,254)" stroke="rgb(177,207,254)" stroke-width="1" opacity="1" d="M 132.5 88 L 131.5 90 L 132.5 88 Z " /><path fill="rgb(177,207,254)" stroke="rgb(177,207,254)" stroke-width="1" opacity="1" d="M 129.5 90 L 128.5 92 L 129.5 90 Z " /><path fill="rgb(177,207,254)" stroke="rgb(177,207,254)" stroke-width="1" opacity="1" d="M 205.5 92 L 204.5 94 L 205.5 92 Z " /><path fill="rgb(177,207,254)" stroke="rgb(177,207,254)" stroke-width="1" opacity="1" d="M 124.5 93 L 123.5 95 L 124.5 93 Z " /><path fill="rgb(177,207,254)" stroke="rgb(177,207,254)" stroke-width="1" opacity="1" d="M 121.5 95 L 120.5 97 L 118.5 98 L 119.5 96 L 121.5 95 Z " /><path fill="rgb(177,207,254)" stroke="rgb(177,207,254)" stroke-width="1" opacity="1" d="M 200.5 95 L 199.5 97 L 200.5 95 Z " /><path fill="rgb(177,207,254)" stroke="rgb(177,207,254)" stroke-width="1" opacity="1" d="M 197.5 97 L 196.5 99 L 191.5 102 L 192.5 100 L 197.5 97 Z " /><path fill="rgb(177,207,254)" stroke="rgb(177,207,254)" stroke-width="1" opacity="1" d="M 116.5 98 L 115.5 100 L 114 100.5 L 116 101.5 L 114 102.5 L 120.5 104 L 121.5 103 L 186.5 103 L 188.5 101 Q 191.5 102.5 188.5 104 L 150.5 128 L 69.5 128 L 70.5 126 L 116.5 98 Z " /><path fill="rgb(177,207,254)" stroke="rgb(177,207,254)" stroke-width="1" opacity="1" d="M 157.5 128 L 187 128.5 L 161.5 152 L 167 145.5 L 169 141.5 L 169 139.5 L 168 130 L 170 129.5 L 157.5 129 L 157.5 128 Z " /><path fill="rgb(177,207,254)" stroke="rgb(177,207,254)" stroke-width="1" opacity="1" d="M 70.5 130 L 72.5 133 L 70.5 130 Z " /><path fill="rgb(177,207,254)" stroke="rgb(177,207,254)" stroke-width="1" opacity="1" d="M 78.5 137 L 80.5 140 L 78.5 137 Z " /><path fill="rgb(177,207,254)" stroke="rgb(177,207,254)" stroke-width="1" opacity="1" d="M 86.5 144 L 88.5 147 L 86.5 144 Z " /><path fill="rgb(177,207,254)" stroke="rgb(177,207,254)" stroke-width="1" opacity="1" d="M 93.5 150 L 96.5 154 L 93.5 150 Z " /><path fill="rgb(177,207,254)" stroke="rgb(177,207,254)" stroke-width="1" opacity="1" d="M 157.5 154 L 152.5 160 L 157.5 154 Z " /><path fill="rgb(177,207,254)" stroke="rgb(177,207,254)" stroke-width="1" opacity="1" d="M 101.5 157 L 103.5 160 L 101.5 157 Z " /><path fill="rgb(177,207,254)" stroke="rgb(177,207,254)" stroke-width="1" opacity="1" d="M 109.5 164 L 111.5 167 L 109.5 164 Z " /><path fill="rgb(177,207,254)" stroke="rgb(177,207,254)" stroke-width="1" opacity="1" d="M 146.5 164 L 143.5 168 L 146.5 164 Z " /><path fill="rgb(177,207,254)" stroke="rgb(177,207,254)" stroke-width="1" opacity="1" d="M 117.5 171 L 119.5 174 L 117.5 171 Z " /><path fill="rgb(177,207,254)" stroke="rgb(177,207,254)" stroke-width="1" opacity="1" d="M 137.5 172 L 135.5 175 L 137.5 172 Z " /><path fill="rgb(48,117,241)" stroke="rgb(48,117,241)" stroke-width="1" opacity="0.07450980392156863" d="M 47.5 0 L 54.5 1 L 55.5 0 L 200.5 0 L 204.5 1 L 208.5 0 L 211 1 Q 209.7 4.3 214.5 3 L 214.5 5 L 219 5 Q 217.9 7.7 220.5 7 Q 221.6 9.8 225 9 Q 224 12 227 11 L 227 15 L 229 15 L 229 17.5 Q 226.8 18.8 229.5 20 L 231 20 L 231 24 L 233 24 L 233 28.5 L 235 28.5 L 235.5 35 L 237 34.5 L 237 38.5 Q 240.3 37.5 239 43.5 Q 242 44.8 241 49 L 243 49 L 243 55.5 Q 246 54.8 245 59 L 247 59 L 247 63.5 Q 244.8 64.8 247.5 66 L 249 65.5 L 249 67.5 L 248 70.5 L 251 71.5 L 251 77.5 Q 254.5 76.5 253 83.5 L 256 88.5 L 255 91.5 L 256 92.5 L 256 109.5 L 255 113.5 L 256 116 L 252 117.5 L 253 123 L 251 123 L 251 127 L 249 127 L 249 129 L 247 129 L 247 131 L 245 131 L 245 133 L 243 133 L 243 135 L 241 135 L 239 139 L 236.5 139 L 229 145 L 229 147 L 227 147 L 227 149 L 225 149 L 225 151 Q 222.3 149.9 223 152.5 Q 221.8 155 218 154 L 217.5 152 Q 217 157.5 212.5 159 L 169.5 197 L 162 202 L 162 204 L 160 204 Q 161.1 206.7 158.5 206 Q 151.3 213.8 139.5 217 L 118.5 217 L 102.5 209 L 67.5 178 L 53 167 Q 54.1 164.3 51.5 165 L 39.5 154 L 37.5 154 L 35 155 L 35 153 L 33 153 L 33 151 L 31 151 L 31 149 L 29 149 L 29 147 L 27 147 L 27 145 L 25 145 Q 26.1 142.3 23.5 143 Q 22.4 140.3 19 141 L 19 139 L 17 139 L 17 137 L 15 137 L 15 135 L 13 135 L 13 133 L 11 133 L 11 131 L 9 131 L 9 129 L 7 129 Q 8.1 126.3 5.5 127 L 5 124.5 Q 5.7 121.9 3 123 L 3 121 L 1 121 L 1 116.5 Q -1.5 115 2 113.5 L 0 111.5 L 0 88.5 L 2 85 L 0 84.5 L 1 82 L 3 81.5 L 3 75 L 5 75 Q 3.9 72.3 6.5 73 L 6.5 72 Q 3.9 72.7 5 70 L 8 68.5 L 7 65.5 L 9 63.5 L 9 59.5 Q 12.1 58 11.5 53 Q 12.8 55.3 14 52.5 L 15 44 L 18 42.5 L 17 37 Q 21 38.4 19 31.5 L 20 31.5 L 20.5 33 L 21 25 Q 24.3 26.3 23 21.5 Q 25.8 20.4 25 17 L 27 17 L 27 13 L 29 13 L 29 11 L 31 11 L 33 7 L 37 7 L 39 3 L 44.5 3 L 45 1 L 46.5 1 L 47.5 0 Z M 73 14 L 72 16 L 185 16 L 180 14 L 113 14 L 112 15 Q 105 17 104 14 L 81 14 L 80 15 L 73 14 Z M 59 15 L 59 16 L 64 16 L 59 15 Z M 191 15 L 191 16 L 196 16 L 191 15 Z M 55 17 L 49 20 L 40 30 L 31 56 L 29 56 L 30 58 L 16 97 Q 15 109 20 114 L 116 197 L 123 201 L 128 202 Q 137 202 142 198 L 228 122 Q 237 116 240 103 L 239 96 L 234 81 L 220 44 L 221 42 L 221 38 L 220 41 L 213 26 Q 209 20 201 17 L 55 17 Z M 37 35 L 35 37 L 37 37 L 37 35 Z " /><path fill="rgb(48,117,241)" stroke="rgb(48,117,241)" stroke-width="1" opacity="0.07450980392156863" d="M 163.5 203 L 164.5 205 Q 161.7 205.7 163.5 203 Z " /><path fill="rgb(48,117,241)" stroke="rgb(48,117,241)" stroke-width="1" opacity="0.07450980392156863" d="M 141.5 217 L 144 217.5 L 141.5 218 L 141.5 217 Z " /><path fill="rgb(61,125,254)" stroke="rgb(61,125,254)" stroke-width="1" opacity="0.9882352941176471" d="M 89.5 110 L 91 110.5 L 88.5 115 L 86.5 116 L 86 113.5 Q 85.3 111.3 87.5 112 L 89.5 110 Z " /><path fill="rgb(61,125,254)" stroke="rgb(61,125,254)" stroke-width="1" opacity="0.9882352941176471" d="M 179.5 110 L 181.5 110 L 184 110.5 L 180 112.5 L 183.5 113 L 189.5 110 L 191.5 111 L 193 110.5 L 192.5 112 L 231.5 112 L 235 110 L 234 112.5 L 234.5 114 L 232.5 113 Q 234.2 115.2 230 117.5 Q 230.8 119.8 228.5 119 L 221 125.5 L 219.5 128 L 215 130.5 L 215.5 132 L 214 131.5 L 208.5 138 L 205.5 140 L 190.5 154 L 189 154 Q 190.1 156.7 187.5 156 L 168.5 173 L 171.5 168 L 168.5 170 L 168.5 168 L 152.5 168 L 152 166.5 L 151 166.5 L 150.5 168 L 148.5 167 L 146.5 168 L 146 165.5 L 148.5 163 L 149.5 164 L 154 159.5 L 156.5 156 L 157.5 157 L 162 152.5 L 165.5 148 L 169 147 L 173.5 141 L 188 128.5 L 187.5 127 L 168.5 127 L 166.5 128 L 165.5 127 L 154 126.5 L 160.5 122 L 162.5 123 L 163.5 120 L 165.5 121 L 166.5 118 L 169.5 120 L 168.5 117 L 170 117.5 L 171.5 115 L 173.5 116 L 174.5 113 L 174.5 115 L 177 115 Q 175.9 112.3 178.5 113 L 179.5 110 Z M 177 163 L 175 165 L 177 165 L 177 163 Z " /><path fill="rgb(61,125,254)" stroke="rgb(61,125,254)" stroke-width="1" opacity="0.9882352941176471" d="M 21.5 111 L 22.5 112 Q 32.8 110.7 39.5 113 L 40.5 112 L 67.5 112 L 72.5 113 L 82.5 111 L 85 112.5 L 85 116.5 L 83.5 118 L 81.5 117 L 81.5 119 L 79 117.5 L 80 119.5 L 67 127 L 68.5 130 L 87 145.5 L 87 147 L 89 147 Q 87.9 149.7 90.5 149 L 95 152.5 L 98.5 157 Q 101.8 155.9 101 158.5 L 106.5 164 Q 107.8 161.8 109 164.5 L 108.5 166 Q 110.8 165.3 110 167.5 L 110.5 169 L 107.5 168 L 85.5 168 L 85.5 170 L 46 135.5 L 45.5 134 L 44 134.5 L 44.5 133 L 39 129.5 L 38.5 128 L 37 128.5 L 38 127.5 L 34.5 124 L 33 124.5 L 29.5 120 L 26.5 118 Q 21.6 115.3 21.5 111 Z " /><path fill="rgb(61,125,254)" stroke="rgb(61,125,254)" stroke-width="1" opacity="0.9882352941176471" d="M 92.5 111 L 91.5 113 L 92.5 111 Z " /><path fill="rgb(61,125,254)" stroke="rgb(61,125,254)" stroke-width="1" opacity="0.9882352941176471" d="M 112.5 169 Q 114.2 172.1 116 170.5 L 114.5 172 L 112.5 169 Z " /><path fill="rgb(61,125,254)" stroke="rgb(61,125,254)" stroke-width="1" opacity="0.9882352941176471" d="M 139.5 171 L 138.5 173 L 139.5 171 Z " /><path fill="rgb(61,125,254)" stroke="rgb(61,125,254)" stroke-width="1" opacity="0.9882352941176471" d="M 89.5 172 L 92.5 176 L 89.5 172 Z " /><path fill="rgb(61,125,254)" stroke="rgb(61,125,254)" stroke-width="1" opacity="0.9882352941176471" d="M 164.5 175 L 161.5 179 L 164.5 175 Z " /><path fill="rgb(61,125,254)" stroke="rgb(61,125,254)" stroke-width="1" opacity="0.9882352941176471" d="M 133.5 176 L 134.5 178 L 133.5 176 Z " /><path fill="rgb(61,125,254)" stroke="rgb(61,125,254)" stroke-width="1" opacity="0.9882352941176471" d="M 96.5 178 L 99.5 182 L 96.5 178 Z " /><path fill="rgb(255,254,254)" stroke="rgb(255,254,254)" stroke-width="1" opacity="1" d="M 66.5 37 L 188.5 37 L 197 41 L 202 52.5 L 201.5 54 Q 204.5 53.1 203 57.5 Q 206.3 59 205 64 Q 208.7 62.6 207 68.5 Q 210.5 70.2 209 76 L 152.5 76 L 151.5 75 L 47.5 75 L 46.5 74 L 45 74.5 L 47 72.5 L 47 69.5 L 51 61.5 L 53 52 Q 56.7 53.4 55 47.5 L 57 43 Q 59.7 44.1 59 41.5 L 66.5 37 Z " /><path fill="rgb(255,254,254)" stroke="rgb(255,254,254)" stroke-width="1" opacity="1" d="M 72.5 129 L 133.5 129 L 135 130.5 L 133 139 L 131 139.5 L 131 167.5 L 131 169.5 Q 132 174 129.5 175 L 123.5 175 L 118 170.5 L 116.5 168 L 103 158 Q 104.1 155.3 101.5 156 L 91 146.5 L 91 145 Q 87.3 146.5 88 143.5 L 85 142 Q 86.1 139.3 83.5 140 L 77 135 Q 78.1 132.3 75.5 133 L 72.5 129 Z " /><path fill="rgb(221,234,254)" stroke="rgb(221,234,254)" stroke-width="1" opacity="1" d="M 211.5 75 L 212 79.5 L 209.5 82 L 150.5 82 L 151 80.5 L 150.5 79 L 149 79.5 L 152.5 77 L 211 77 L 211.5 75 Z " /><path fill="rgb(221,234,254)" stroke="rgb(221,234,254)" stroke-width="1" opacity="1" d="M 145.5 128 L 156 129.5 L 154 130.5 L 155 135.5 L 154 136.5 L 154 151.5 L 155 153.5 L 153 153.5 L 153.5 157 L 155 156.5 L 140.5 170 L 139 168.5 L 141.5 165 L 140 164.5 L 141 163.5 L 141 150.5 L 142 148.5 L 141.5 146 Q 138.9 146.7 140 144 L 142 143.5 L 142 134.5 L 148 129.5 Q 144.7 129.6 145.5 128 Z " /><path fill="rgb(221,234,254)" stroke="rgb(221,234,254)" stroke-width="1" opacity="1" d="M 90.5 147 L 91.5 149 L 90.5 147 Z " /><path fill="rgb(221,234,254)" stroke="rgb(221,234,254)" stroke-width="1" opacity="1" d="M 98.5 154 L 99.5 156 L 98.5 154 Z " /><path fill="rgb(221,234,254)" stroke="rgb(221,234,254)" stroke-width="1" opacity="1" d="M 114.5 168 L 115.5 170 L 114.5 168 Z " /><path fill="rgb(60,113,253)" stroke="rgb(60,113,253)" stroke-width="1" opacity="0.9764705882352941" d="M 161.5 152 L 157.5 157 L 161.5 152 Z " /><path fill="rgb(60,113,253)" stroke="rgb(60,113,253)" stroke-width="1" opacity="0.9764705882352941" d="M 95.5 153 L 98.5 157 L 95.5 153 Z " /><path fill="rgb(60,113,253)" stroke="rgb(60,113,253)" stroke-width="1" opacity="0.9764705882352941" d="M 101.5 158 L 121.5 176 Q 124.2 178.8 130.5 178 L 138.5 173 L 153.5 159 L 149 164.5 L 149.5 166 Q 147.7 163.3 146 167.5 L 147.5 168 L 149.5 167 L 151 167.5 L 151.5 166 L 152 168 L 168.5 168 L 169.5 169 L 177.5 162 L 177 163.5 Q 177.8 165.8 175.5 165 L 176 166.5 L 171.5 171 Q 169.8 168.3 168 172.5 L 162.5 179 L 161 178.5 L 153.5 187 L 136.5 200 L 124.5 201 L 117.5 198 L 100 182.5 L 98.5 180 L 97.5 181 L 93 176.5 L 91.5 174 L 90.5 175 L 86 170.5 L 85 168.5 L 107.5 168 L 108.5 167 L 108.5 169 L 111 168.5 L 110 166 L 108.5 166 L 101.5 158 Z " /><path fill="rgb(60,113,253)" stroke="rgb(60,113,253)" stroke-width="1" opacity="0.9764705882352941" d="M 79.5 164 L 82.5 168 L 79.5 164 Z " /></svg>